<svg xmlns="http://www.w3.org/2000/svg" viewBox="0 0 1600 1000" role="img" aria-labelledby="title desc">
  <title id="title">Escudo digital de seguridad informática</title>
  <desc id="desc">Ilustración en negro y naranja de un escudo, un candado y circuitos digitales.</desc>
  <defs>
    <linearGradient id="bg" x1="0" y1="0" x2="1" y2="1">
      <stop offset="0" stop-color="#050505"/>
      <stop offset="0.55" stop-color="#111114"/>
      <stop offset="1" stop-color="#070707"/>
    </linearGradient>
    <linearGradient id="orange" x1="0" y1="0" x2="1" y2="1">
      <stop offset="0" stop-color="#ff9b31"/>
      <stop offset="0.45" stop-color="#ff6a00"/>
      <stop offset="1" stop-color="#d94700"/>
    </linearGradient>
    <radialGradient id="glow" cx="50%" cy="50%" r="55%">
      <stop offset="0" stop-color="#ff6a00" stop-opacity="0.33"/>
      <stop offset="0.55" stop-color="#ff6a00" stop-opacity="0.10"/>
      <stop offset="1" stop-color="#ff6a00" stop-opacity="0"/>
    </radialGradient>
    <filter id="shadow" x="-50%" y="-50%" width="200%" height="200%">
      <feDropShadow dx="0" dy="25" stdDeviation="24" flood-color="#000" flood-opacity="0.75"/>
    </filter>
    <filter id="soft"><feGaussianBlur stdDeviation="8"/></filter>
    <pattern id="grid" width="72" height="72" patternUnits="userSpaceOnUse">
      <path d="M72 0H0V72" fill="none" stroke="#fff" stroke-opacity="0.035" stroke-width="1"/>
    </pattern>
  </defs>
  <rect width="1600" height="1000" fill="url(#bg)"/>
  <rect width="1600" height="1000" fill="url(#grid)"/>
  <ellipse cx="800" cy="510" rx="560" ry="420" fill="url(#glow)"/>

  <g stroke="#ff6a00" stroke-opacity="0.45" stroke-width="4" fill="none">
    <path d="M120 215h280l85 85h115"/>
    <path d="M90 755h320l95-95h105"/>
    <path d="M1480 260h-265l-90 90h-120"/>
    <path d="M1510 725h-315l-80-80h-120"/>
    <path d="M230 485h205l70-70h100"/>
    <path d="M1370 500h-210l-68-68h-95"/>
  </g>
  <g fill="#ff6a00">
    <circle cx="120" cy="215" r="9"/><circle cx="90" cy="755" r="9"/><circle cx="1480" cy="260" r="9"/><circle cx="1510" cy="725" r="9"/>
    <circle cx="230" cy="485" r="8"/><circle cx="1370" cy="500" r="8"/>
  </g>

  <g filter="url(#shadow)">
    <path d="M800 145c121 88 257 119 390 128v253c0 218-132 375-390 470C542 901 410 744 410 526V273c133-9 269-40 390-128Z" fill="#08090b" stroke="#ff6a00" stroke-width="18"/>
    <path d="M800 202c94 61 197 88 300 102v213c0 162-91 283-300 371-209-88-300-209-300-371V304c103-14 206-41 300-102Z" fill="url(#orange)" opacity="0.95"/>
    <path d="M800 242v593c-179-79-246-178-246-318V343c84-14 166-39 246-101Z" fill="#15171b" opacity="0.92"/>
  </g>

  <g filter="url(#shadow)">
    <rect x="640" y="475" width="320" height="245" rx="38" fill="#060606" stroke="#ffb15c" stroke-width="7"/>
    <path d="M700 475v-65c0-73 43-131 100-131s100 58 100 131v65" fill="none" stroke="#fff" stroke-width="32" stroke-linecap="round"/>
    <circle cx="800" cy="583" r="40" fill="url(#orange)"/>
    <path d="M800 620v48" stroke="#ff6a00" stroke-width="25" stroke-linecap="round"/>
  </g>

  <g fill="#fff" opacity="0.15">
    <circle cx="570" cy="350" r="5"/><circle cx="1045" cy="386" r="5"/><circle cx="1110" cy="575" r="5"/><circle cx="535" cy="640" r="5"/>
  </g>
  <text x="800" y="935" text-anchor="middle" fill="#ffffff" opacity="0.8" font-family="Arial, Helvetica, sans-serif" font-size="30" font-weight="700" letter-spacing="9">PROTECCIÓN DIGITAL</text>
</svg>
